<svg width="268" height="268" xmlns="http://www.w3.org/2000/svg" xmlns:xlink="http://www.w3.org/1999/xlink" xml:space="preserve" overflow="hidden"><defs><clipPath id="clip0"><rect x="442" y="556" width="268" height="268"/></clipPath></defs><g clip-path="url(#clip0)" transform="translate(-442 -556)"><path d="M685.346 784.866 646.467 784.866C644.713 784.866 643.072 783.927 642.153 782.367L604.962 720.768 693.335 571.133C694.015 569.982 694.209 568.609 693.876 567.315 693.543 566.022 692.71 564.913 691.559 564.233L678.803 556.701C676.406 555.285 673.318 556.081 671.904 558.477L590.35 696.568 587.171 691.303C586.69 690.506 585.997 689.857 585.169 689.43L575.418 684.396 502.487 560.303C501.809 559.151 500.702 558.316 499.409 557.979 498.116 557.644 496.742 557.836 495.589 558.514L481.379 566.877C478.983 568.288 478.182 571.374 479.591 573.771L552.59 697.979 552.778 708.734C552.794 709.62 553.042 710.485 553.499 711.244L567.727 734.877 543.066 776.63C539.308 782.994 532.383 786.948 524.992 786.948L464.351 786.948C458.526 786.948 453.788 791.683 453.788 797.503L453.788 813.165C453.788 818.99 458.526 823.728 464.351 823.728L528.417 823.728C538.126 823.728 547.223 818.533 552.16 810.171L582.318 759.113 615.322 813.932C618.976 820.142 625.724 824.001 632.93 824.001L685.348 824.001C692.442 824.001 698.214 818.229 698.214 811.135L698.214 797.733C698.212 790.637 692.441 784.866 685.346 784.866ZM635.723 648.872 632.432 654.444 628.618 651.583 631.908 646.011 635.723 648.872ZM637.063 637.284 640.512 631.443 644.326 634.304 640.877 640.144 637.063 637.284ZM678.017 567.937 682.098 570.346 649.48 625.576 645.666 622.715 678.017 567.937ZM623.463 660.31 627.277 663.171 599.047 710.971 596.265 706.363 623.463 660.31ZM490.827 573.007 496.354 569.754 563.811 684.53 558.505 688.16 490.827 573.007ZM488.196 797.023 488.196 813.653 481.222 813.653 481.222 797.023 488.196 797.023ZM463.863 813.165 463.863 797.503C463.863 797.238 464.082 797.023 464.351 797.023L471.147 797.023 471.147 813.653 464.351 813.653C464.082 813.653 463.863 813.434 463.863 813.165ZM543.484 805.048C540.351 810.356 534.577 813.653 528.417 813.653L498.271 813.653 498.271 797.023 524.992 797.023C535.93 797.023 546.18 791.172 551.741 781.753L573.633 744.687 576.412 749.303 543.484 805.048ZM623.978 808.778 562.827 707.206 562.657 697.526 569.637 692.751 579.282 697.73 633.499 787.526C636.191 792.1 641.159 794.941 646.466 794.941L668.314 794.941 668.314 813.926 632.929 813.926C629.277 813.925 625.857 811.969 623.978 808.778ZM688.137 811.134C688.137 812.673 686.885 813.925 685.346 813.925L678.388 813.925 678.388 794.94 685.346 794.94C686.885 794.94 688.137 796.193 688.137 797.732L688.137 811.134Z" fill="#73000A"/></g></svg>